<svg id="Logos" xmlns="http://www.w3.org/2000/svg" viewBox="0 0 164.51 115.44"><defs><style>.cls-1{fill:#231f20;}.cls-1,.cls-2{fill-rule:evenodd;}.cls-2{fill:#005fff;}</style></defs><g id="StreamLogo-Vertical"><path class="cls-1" d="M21.42,94.44a5.42,5.42,0,0,0,.9-1,2.18,2.18,0,0,0,.39-1.28,2,2,0,0,0-.65-1.52,5.5,5.5,0,0,0-1.56-1A9.83,9.83,0,0,0,18.56,89c-.67-.14-1.23-.28-1.68-.39a26.59,26.59,0,0,1-3.47-1.09,11.79,11.79,0,0,1-2.83-1.57,7,7,0,0,1-1.9-2.18,6,6,0,0,1-.7-3,6.26,6.26,0,0,1,.78-3,9,9,0,0,1,2.1-2.52,10.4,10.4,0,0,1,3.08-1.74,11,11,0,0,1,3.73-.64,10.73,10.73,0,0,1,6.13,1.88,8.5,8.5,0,0,1,2.13,2.1,6.88,6.88,0,0,1,1.15,2.74L22.2,80.67a4,4,0,0,0-1.45-2.24,4.79,4.79,0,0,0-3.08-.9,5.38,5.38,0,0,0-1.4.2,4.92,4.92,0,0,0-1.35.58,3.94,3.94,0,0,0-1,1,2.07,2.07,0,0,0-.42,1.28,2,2,0,0,0,.47,1.35,4,4,0,0,0,1.15.92,7,7,0,0,0,1.46.59c.52.15,1,.28,1.45.39a32.46,32.46,0,0,1,4.93,1.57,12.33,12.33,0,0,1,3.14,1.85,5.75,5.75,0,0,1,1.65,2.21,7.29,7.29,0,0,1,.48,2.72,7.13,7.13,0,0,1-.82,3.36,8.3,8.3,0,0,1-2.24,2.71A10.34,10.34,0,0,1,21.73,100a13.82,13.82,0,0,1-4.29.65A11.35,11.35,0,0,1,11.26,99a8.44,8.44,0,0,1-3.67-4.56l4.59-2.08A5.18,5.18,0,0,0,14.48,95a7,7,0,0,0,3.19.7,5.76,5.76,0,0,0,3.75-1.23ZM46,100a18.23,18.23,0,0,1-4.53,1,8.1,8.1,0,0,1-4-.65,6.34,6.34,0,0,1-2.91-2.85,12.17,12.17,0,0,1-1.12-5.74V79.27H28.92V73.36h1.22a3.89,3.89,0,0,0,3.67-1.84c.38-.62.43-1.26.48-3v-2H39v6.89h5.49v5.91H39L38.8,92.54a6.15,6.15,0,0,0,.31,2.13,2.21,2.21,0,0,0,1,1.17,4,4,0,0,0,1.9.39A21.92,21.92,0,0,0,44.91,96L46,100ZM63.15,78.2l-.79-.33c-.22-.08-.48-.15-.78-.23a4.19,4.19,0,0,0-.95-.11,8.62,8.62,0,0,0-3,.53,7.73,7.73,0,0,0-2.4,1.43,6.67,6.67,0,0,0-1.6,2.1A5.75,5.75,0,0,0,53,84.14l0,16.5H47.52V73.22h4.32l1.12,3a8.17,8.17,0,0,1,2.94-2.61,9.56,9.56,0,0,1,4.56-1,19.06,19.06,0,0,1,4.09.51l-1.4,5.09Zm14.09,22.51a13.69,13.69,0,0,1-5.46-1.09,14.17,14.17,0,0,1-4.45-3,14.15,14.15,0,0,1-4.09-10,14.61,14.61,0,0,1,1-5.49,14.34,14.34,0,0,1,2.8-4.48,13.12,13.12,0,0,1,4.12-3,11.89,11.89,0,0,1,5-1.09,13.25,13.25,0,0,1,5.06,1,10.54,10.54,0,0,1,4,3A14.38,14.38,0,0,1,88,81.65a25.63,25.63,0,0,1,1,7.42H69a9.09,9.09,0,0,0,1.23,2.71,9.92,9.92,0,0,0,2,2.19A9,9,0,0,0,77.8,95.9,10,10,0,0,0,84.86,93l3.36,3.36a14.66,14.66,0,0,1-4.79,3.14,16,16,0,0,1-6.19,1.17Zm-1-23.18a6.12,6.12,0,0,0-2.44.5,8.26,8.26,0,0,0-2.13,1.4A8.89,8.89,0,0,0,70,81.56a10,10,0,0,0-1,2.69H83.12a8.76,8.76,0,0,0-.61-2.58A6.68,6.68,0,0,0,79,78.06a6.88,6.88,0,0,0-2.77-.53ZM118,73.22v27.42h-4.6L112.6,97a8.77,8.77,0,0,1-3.58,2.8,10.9,10.9,0,0,1-4.42.95,12.61,12.61,0,0,1-5.24-1.09,13.57,13.57,0,0,1-4.26-3,14.48,14.48,0,0,1-2.88-4.48A14.54,14.54,0,0,1,95.1,76.69a13.6,13.6,0,0,1,4.26-3,12.77,12.77,0,0,1,5.24-1.09,11,11,0,0,1,4.31.87,10,10,0,0,1,3.69,2.72l.84-3ZM104.6,95.9a6.74,6.74,0,0,0,3.08-.73,7.83,7.83,0,0,0,2.52-2,9.64,9.64,0,0,0,1.68-2.94,10.84,10.84,0,0,0,0-7.17,9.64,9.64,0,0,0-1.68-2.94,7.8,7.8,0,0,0-2.52-2,6.86,6.86,0,0,0-6.16,0,7.8,7.8,0,0,0-2.52,2,9.64,9.64,0,0,0-1.68,2.94,10.67,10.67,0,0,0,0,7.17A9.64,9.64,0,0,0,99,93.18a7.83,7.83,0,0,0,2.52,2,6.71,6.71,0,0,0,3.08.73Zm22.81,4.74H122V73.22h4.31l1.12,2.29a10.42,10.42,0,0,1,2.41-2,6.34,6.34,0,0,1,3.42-.87,9.12,9.12,0,0,1,1.76.2,9,9,0,0,1,2,.67,8.61,8.61,0,0,1,2,1.29,6.86,6.86,0,0,1,1.63,2.1,8.38,8.38,0,0,1,2.88-3,7.41,7.41,0,0,1,4.12-1.26,11.53,11.53,0,0,1,3.08.45,7.64,7.64,0,0,1,3,1.68,8.94,8.94,0,0,1,2.3,3.42,15,15,0,0,1,.89,5.65v16.84h-5.09V83.75c0-2.32-.48-3.93-1.43-4.85a5.24,5.24,0,0,0-3.78-1.37A4.1,4.1,0,0,0,143.48,79a7.08,7.08,0,0,0-1.34,4.76v16.84H137V83.75c0-2.32-.47-3.93-1.42-4.85a5.27,5.27,0,0,0-3.78-1.37,4,4,0,0,0-2.94,1.29,6.36,6.36,0,0,0-1.49,4v17.79Z"/><path id="LogoMark" class="cls-2" d="M94.53,27.32l25.61-1.81a2,2,0,0,1,1.76,3.16L104,53.62a2,2,0,0,1-1.63.83H62.2a2,2,0,0,1-1.63-.83l-18-24.95a2,2,0,0,1,1.77-3.16l25.53,1.81,10.9-12.18a2,2,0,0,1,3,0L94.53,27.32ZM99.89,50.5,83.27,44.29V50.5Zm-18.62,0V44.29L64.66,50.5Zm-1.91-7.7-17,6.34L49.89,31.78l29.47,11Zm5.8,0,17,6.34,12.49-17.36-29.47,11Zm-3.87-1.44V20.46L67.41,36.13l13.88,5.23Zm2,0V20.46L97.16,36.13,83.27,41.36ZM63.34,34.69l3.19-3.59L50.92,30l12.42,4.71Zm37.72,0L97.87,31.1,113.47,30l-12.41,4.71Z"/></g></svg>