<?xml version="1.0" encoding="UTF-8" standalone="no"?>
<!DOCTYPE svg PUBLIC "-//W3C//DTD SVG 1.1//EN"
 "http://www.w3.org/Graphics/SVG/1.1/DTD/svg11.dtd">
<!-- Generated by graphviz version 2.49.3 (20211023.0002)
 -->
<!-- Pages: 1 -->
<svg width="280pt" height="188pt"
 viewBox="0.00 0.00 279.74 188.00" xmlns="http://www.w3.org/2000/svg" xmlns:xlink="http://www.w3.org/1999/xlink">
<g id="graph0" class="graph" transform="scale(1 1) rotate(0) translate(4 184)">
<polygon fill="white" stroke="transparent" points="-4,4 -4,-184 275.74,-184 275.74,4 -4,4"/>
<!-- FeatureExample -->
<g id="node1" class="node">
<title>FeatureExample</title>
<ellipse fill="none" stroke="black" cx="70.19" cy="-162" rx="70.39" ry="18"/>
<text text-anchor="middle" x="70.19" y="-158.3" font-family="Times,serif" font-size="14.00">FeatureExample</text>
</g>
<!-- Feature -->
<g id="node3" class="node">
<title>Feature</title>
<ellipse fill="none" stroke="black" cx="82.19" cy="-90" rx="37.89" ry="18"/>
<text text-anchor="middle" x="82.19" y="-86.3" font-family="Times,serif" font-size="14.00">Feature</text>
</g>
<!-- FeatureExample&#45;&gt;Feature -->
<g id="edge1" class="edge">
<title>FeatureExample&#45;&gt;Feature</title>
<path fill="none" stroke="black" d="M73.16,-143.7C74.48,-135.98 76.07,-126.71 77.55,-118.11"/>
<polygon fill="black" stroke="black" points="81.02,-118.55 79.26,-108.1 74.12,-117.37 81.02,-118.55"/>
</g>
<!-- FeatureTesting -->
<g id="node4" class="node">
<title>FeatureTesting</title>
<ellipse fill="none" stroke="black" cx="202.19" cy="-90" rx="64.19" ry="18"/>
<text text-anchor="middle" x="202.19" y="-86.3" font-family="Times,serif" font-size="14.00">FeatureTesting</text>
</g>
<!-- FeatureExample&#45;&gt;FeatureTesting -->
<g id="edge2" class="edge">
<title>FeatureExample&#45;&gt;FeatureTesting</title>
<path fill="none" stroke="black" d="M99.49,-145.46C118.68,-135.29 143.93,-121.9 164.6,-110.94"/>
<polygon fill="black" stroke="black" points="166.24,-114.03 173.43,-106.25 162.96,-107.84 166.24,-114.03"/>
</g>
<!-- FeatureInterface -->
<g id="node2" class="node">
<title>FeatureInterface</title>
<ellipse fill="none" stroke="black" cx="142.19" cy="-18" rx="70.39" ry="18"/>
<text text-anchor="middle" x="142.19" y="-14.3" font-family="Times,serif" font-size="14.00">FeatureInterface</text>
</g>
<!-- Feature&#45;&gt;FeatureInterface -->
<g id="edge6" class="edge">
<title>Feature&#45;&gt;FeatureInterface</title>
<path fill="none" stroke="black" d="M95.81,-73.12C103.26,-64.42 112.67,-53.45 121.05,-43.66"/>
<polygon fill="black" stroke="black" points="123.95,-45.67 127.8,-35.8 118.63,-41.11 123.95,-45.67"/>
</g>
<!-- FeatureTesting&#45;&gt;FeatureInterface -->
<g id="edge5" class="edge">
<title>FeatureTesting&#45;&gt;FeatureInterface</title>
<path fill="none" stroke="black" d="M187.97,-72.41C180.61,-63.82 171.47,-53.16 163.3,-43.63"/>
<polygon fill="black" stroke="black" points="165.89,-41.27 156.73,-35.96 160.58,-45.83 165.89,-41.27"/>
</g>
<!-- FeatureTests -->
<g id="node5" class="node">
<title>FeatureTests</title>
<ellipse fill="none" stroke="black" cx="215.19" cy="-162" rx="56.59" ry="18"/>
<text text-anchor="middle" x="215.19" y="-158.3" font-family="Times,serif" font-size="14.00">FeatureTests</text>
</g>
<!-- FeatureTests&#45;&gt;Feature -->
<g id="edge3" class="edge">
<title>FeatureTests&#45;&gt;Feature</title>
<path fill="none" stroke="black" d="M187.31,-146.33C166.38,-135.31 137.65,-120.19 115.51,-108.53"/>
<polygon fill="black" stroke="black" points="116.95,-105.34 106.47,-103.77 113.69,-111.53 116.95,-105.34"/>
</g>
<!-- FeatureTests&#45;&gt;FeatureTesting -->
<g id="edge4" class="edge">
<title>FeatureTests&#45;&gt;FeatureTesting</title>
<path fill="none" stroke="black" d="M211.98,-143.7C210.55,-135.98 208.83,-126.71 207.23,-118.11"/>
<polygon fill="black" stroke="black" points="210.64,-117.3 205.37,-108.1 203.76,-118.58 210.64,-117.3"/>
</g>
</g>
</svg>
