<?xml version="1.0" encoding="UTF-8" standalone="no"?>
<!DOCTYPE svg PUBLIC "-//W3C//DTD SVG 1.1//EN"
 "http://www.w3.org/Graphics/SVG/1.1/DTD/svg11.dtd">
<!-- Generated by graphviz version 2.49.3 (20211023.0002)
 -->
<!-- Pages: 1 -->
<svg width="284pt" height="260pt"
 viewBox="0.00 0.00 283.89 260.00" xmlns="http://www.w3.org/2000/svg" xmlns:xlink="http://www.w3.org/1999/xlink">
<g id="graph0" class="graph" transform="scale(1 1) rotate(0) translate(4 256)">
<polygon fill="white" stroke="transparent" points="-4,4 -4,-256 279.89,-256 279.89,4 -4,4"/>
<!-- Application -->
<g id="node1" class="node">
<title>Application</title>
<ellipse fill="none" stroke="black" cx="137.95" cy="-234" rx="53.89" ry="18"/>
<text text-anchor="middle" x="137.95" y="-230.3" font-family="Times,serif" font-size="14.00">Application</text>
</g>
<!-- µSearch -->
<g id="node2" class="node">
<title>µSearch</title>
<ellipse fill="none" stroke="black" cx="40.95" cy="-162" rx="40.89" ry="18"/>
<text text-anchor="middle" x="40.95" y="-158.3" font-family="Times,serif" font-size="14.00">µSearch</text>
</g>
<!-- Application&#45;&gt;µSearch -->
<g id="edge1" class="edge">
<title>Application&#45;&gt;µSearch</title>
<path fill="none" stroke="black" d="M116.42,-217.46C102.7,-207.57 84.76,-194.62 69.82,-183.83"/>
<polygon fill="black" stroke="black" points="71.57,-180.79 61.42,-177.77 67.48,-186.46 71.57,-180.79"/>
</g>
<!-- µHome -->
<g id="node3" class="node">
<title>µHome</title>
<ellipse fill="none" stroke="black" cx="137.95" cy="-162" rx="38.19" ry="18"/>
<text text-anchor="middle" x="137.95" y="-158.3" font-family="Times,serif" font-size="14.00">µHome</text>
</g>
<!-- Application&#45;&gt;µHome -->
<g id="edge2" class="edge">
<title>Application&#45;&gt;µHome</title>
<path fill="none" stroke="black" d="M137.95,-215.7C137.95,-207.98 137.95,-198.71 137.95,-190.11"/>
<polygon fill="black" stroke="black" points="141.45,-190.1 137.95,-180.1 134.45,-190.1 141.45,-190.1"/>
</g>
<!-- µProfile -->
<g id="node4" class="node">
<title>µProfile</title>
<ellipse fill="none" stroke="black" cx="234.95" cy="-162" rx="40.89" ry="18"/>
<text text-anchor="middle" x="234.95" y="-158.3" font-family="Times,serif" font-size="14.00">µProfile</text>
</g>
<!-- Application&#45;&gt;µProfile -->
<g id="edge3" class="edge">
<title>Application&#45;&gt;µProfile</title>
<path fill="none" stroke="black" d="M159.47,-217.46C173.19,-207.57 191.13,-194.62 206.08,-183.83"/>
<polygon fill="black" stroke="black" points="208.41,-186.46 214.48,-177.77 204.32,-180.79 208.41,-186.46"/>
</g>
<!-- µFeatures -->
<g id="node5" class="node">
<title>µFeatures</title>
<ellipse fill="none" stroke="black" cx="137.95" cy="-90" rx="46.59" ry="18"/>
<text text-anchor="middle" x="137.95" y="-86.3" font-family="Times,serif" font-size="14.00">µFeatures</text>
</g>
<!-- µSearch&#45;&gt;µFeatures -->
<g id="edge4" class="edge">
<title>µSearch&#45;&gt;µFeatures</title>
<path fill="none" stroke="black" d="M61.52,-146.15C75.09,-136.36 93.09,-123.37 108.22,-112.45"/>
<polygon fill="black" stroke="black" points="110.67,-115 116.73,-106.31 106.58,-109.32 110.67,-115"/>
</g>
<!-- µHome&#45;&gt;µFeatures -->
<g id="edge5" class="edge">
<title>µHome&#45;&gt;µFeatures</title>
<path fill="none" stroke="black" d="M137.95,-143.7C137.95,-135.98 137.95,-126.71 137.95,-118.11"/>
<polygon fill="black" stroke="black" points="141.45,-118.1 137.95,-108.1 134.45,-118.1 141.45,-118.1"/>
</g>
<!-- µProfile&#45;&gt;µFeatures -->
<g id="edge6" class="edge">
<title>µProfile&#45;&gt;µFeatures</title>
<path fill="none" stroke="black" d="M214.38,-146.15C200.8,-136.36 182.8,-123.37 167.67,-112.45"/>
<polygon fill="black" stroke="black" points="169.32,-109.32 159.16,-106.31 165.22,-115 169.32,-109.32"/>
</g>
<!-- µCore -->
<g id="node6" class="node">
<title>µCore</title>
<ellipse fill="none" stroke="black" cx="58.95" cy="-18" rx="33.6" ry="18"/>
<text text-anchor="middle" x="58.95" y="-14.3" font-family="Times,serif" font-size="14.00">µCore</text>
</g>
<!-- µFeatures&#45;&gt;µCore -->
<g id="edge7" class="edge">
<title>µFeatures&#45;&gt;µCore</title>
<path fill="none" stroke="black" d="M120.02,-73.12C109.22,-63.55 95.31,-51.23 83.5,-40.76"/>
<polygon fill="black" stroke="black" points="85.53,-37.88 75.72,-33.86 80.88,-43.12 85.53,-37.88"/>
</g>
<!-- µUI -->
<g id="node7" class="node">
<title>µUI</title>
<ellipse fill="none" stroke="black" cx="137.95" cy="-18" rx="27" ry="18"/>
<text text-anchor="middle" x="137.95" y="-14.3" font-family="Times,serif" font-size="14.00">µUI</text>
</g>
<!-- µFeatures&#45;&gt;µUI -->
<g id="edge8" class="edge">
<title>µFeatures&#45;&gt;µUI</title>
<path fill="none" stroke="black" d="M137.95,-71.7C137.95,-63.98 137.95,-54.71 137.95,-46.11"/>
<polygon fill="black" stroke="black" points="141.45,-46.1 137.95,-36.1 134.45,-46.1 141.45,-46.1"/>
</g>
<!-- µTesting -->
<g id="node8" class="node">
<title>µTesting</title>
<ellipse fill="none" stroke="black" cx="225.95" cy="-18" rx="42.79" ry="18"/>
<text text-anchor="middle" x="225.95" y="-14.3" font-family="Times,serif" font-size="14.00">µTesting</text>
</g>
<!-- µFeatures&#45;&gt;µTesting -->
<g id="edge9" class="edge">
<title>µFeatures&#45;&gt;µTesting</title>
<path fill="none" stroke="black" d="M157.48,-73.46C169.64,-63.79 185.45,-51.21 198.82,-40.58"/>
<polygon fill="black" stroke="black" points="201.13,-43.22 206.77,-34.25 196.77,-37.74 201.13,-43.22"/>
</g>
</g>
</svg>
